<svg width="43" height="44" viewBox="0 0 43 44" fill="none" xmlns="http://www.w3.org/2000/svg">
<path d="M16.093 16.2713C15.7373 16.2713 15.3962 16.4125 15.1447 16.6641C14.8932 16.9156 14.7519 17.2567 14.7519 17.6123C14.7519 17.968 14.6106 18.3091 14.3591 18.5606C14.1076 18.8121 13.7665 18.9534 13.4108 18.9534C13.0551 18.9534 12.714 18.8121 12.4625 18.5606C12.211 18.3091 12.0697 17.968 12.0697 17.6123C12.0697 16.5453 12.4936 15.522 13.2481 14.7675C14.0026 14.013 15.0259 13.5891 16.093 13.5891C17.16 13.5891 18.1833 14.013 18.9379 14.7675C19.6924 15.522 20.1162 16.5453 20.1162 17.6123C20.1162 17.968 19.9749 18.3091 19.7234 18.5606C19.4719 18.8121 19.1308 18.9534 18.7751 18.9534C18.4195 18.9534 18.0784 18.8121 17.8269 18.5606C17.5754 18.3091 17.4341 17.968 17.4341 17.6123C17.4341 17.2567 17.2928 16.9156 17.0413 16.6641C16.7898 16.4125 16.4486 16.2713 16.093 16.2713ZM26.8217 16.2713C26.466 16.2713 26.1249 16.4125 25.8734 16.6641C25.6219 16.9156 25.4806 17.2567 25.4806 17.6123C25.4806 17.968 25.3393 18.3091 25.0878 18.5606C24.8363 18.8121 24.4952 18.9534 24.1395 18.9534C23.7838 18.9534 23.4427 18.8121 23.1912 18.5606C22.9397 18.3091 22.7984 17.968 22.7984 17.6123C22.7984 16.5453 23.2223 15.522 23.9768 14.7675C24.7313 14.013 25.7546 13.5891 26.8217 13.5891C27.8887 13.5891 28.9121 14.013 29.6666 14.7675C30.4211 15.522 30.845 16.5453 30.845 17.6123C30.845 17.968 30.7037 18.3091 30.4522 18.5606C30.2007 18.8121 29.8595 18.9534 29.5039 18.9534C29.1482 18.9534 28.8071 18.8121 28.5556 18.5606C28.3041 18.3091 28.1628 17.968 28.1628 17.6123C28.1628 17.2567 28.0215 16.9156 27.77 16.6641C27.5185 16.4125 27.1774 16.2713 26.8217 16.2713ZM12.1636 21.6356C11.9716 21.6356 11.7819 21.6769 11.6072 21.7565C11.4326 21.8362 11.2771 21.9524 11.1512 22.0974C11.0254 22.2423 10.9321 22.4126 10.8777 22.5967C10.8233 22.7808 10.809 22.9744 10.8359 23.1645C11.2003 25.7218 12.4752 28.0619 14.4264 29.7548C16.3776 31.4477 18.8741 32.3797 21.4573 32.3797C24.0406 32.3797 26.537 31.4477 28.4882 29.7548C30.4395 28.0619 31.7143 25.7218 32.0788 23.1645C32.1057 22.9742 32.0914 22.7803 32.0368 22.596C31.9822 22.4117 31.8887 22.2413 31.7626 22.0964C31.6364 21.9514 31.4806 21.8352 31.3056 21.7557C31.1306 21.6762 30.9406 21.6353 30.7484 21.6356H12.1636ZM21.4573 29.6821C19.7928 29.6822 18.1692 29.1665 16.8099 28.2058C15.4505 27.2452 14.4223 25.8868 13.8668 24.3178H29.0479C28.4923 25.8868 27.4641 27.2452 26.1048 28.2058C24.7455 29.1665 23.1218 29.6822 21.4573 29.6821ZM37.5504 21.6356C37.5504 19.5222 37.1341 17.4296 36.3254 15.4771C35.5166 13.5246 34.3312 11.7505 32.8368 10.2561C31.3425 8.76171 29.5684 7.57631 27.6159 6.76755C25.6634 5.9588 23.5707 5.54254 21.4573 5.54254C19.344 5.54254 17.2513 5.9588 15.2988 6.76755C13.3463 7.57631 11.5722 8.76171 10.0778 10.2561C8.58343 11.7505 7.39802 13.5246 6.58927 15.4771C5.78052 17.4296 5.36426 19.5222 5.36426 21.6356C5.36426 25.9038 7.05977 29.9971 10.0778 33.0151C13.0958 36.0332 17.1892 37.7287 21.4573 37.7287C25.7255 37.7287 29.8188 36.0332 32.8368 33.0151C35.8549 29.9971 37.5504 25.9038 37.5504 21.6356ZM8.04644 21.6356C8.04644 18.0788 9.45937 14.6677 11.9744 12.1527C14.4894 9.63765 17.9005 8.22472 21.4573 8.22472C25.0141 8.22472 28.4252 9.63765 30.9403 12.1527C33.4553 14.6677 34.8682 18.0788 34.8682 21.6356C34.8682 25.1924 33.4553 28.6035 30.9403 31.1185C28.4252 33.6336 25.0141 35.0465 21.4573 35.0465C17.9005 35.0465 14.4894 33.6336 11.9744 31.1185C9.45937 28.6035 8.04644 25.1924 8.04644 21.6356Z" fill="#333333"/>
</svg>
