<svg width="86" height="87" viewBox="0 0 86 87" fill="none" xmlns="http://www.w3.org/2000/svg">
<g filter="url(#filter0_d_133_948)">
<path d="M4 30.0199C4 20.8887 4 16.3232 5.46287 12.7115C7.4951 7.6942 11.4744 3.71495 16.4917 1.68272C20.1033 0.219849 24.6689 0.219849 33.8 0.219849H52.0455C61.1766 0.219849 65.7422 0.219849 69.3538 1.68272C74.3712 3.71495 78.3504 7.6942 80.3827 12.7115C81.8455 16.3232 81.8455 20.8887 81.8455 30.0198V48.2654C81.8455 57.3965 81.8455 61.962 80.3827 65.5737C78.3504 70.591 74.3712 74.5703 69.3538 76.6025C65.7422 78.0654 61.1766 78.0654 52.0455 78.0654H33.8C24.6689 78.0654 20.1033 78.0654 16.4917 76.6025C11.4744 74.5703 7.4951 70.591 5.46287 65.5737C4 61.962 4 57.3965 4 48.2654V30.0199Z" fill="#6E00FF"/>
</g>
<defs>
<filter id="filter0_d_133_948" x="0" y="0.219849" width="85.8457" height="85.8455" filterUnits="userSpaceOnUse" color-interpolation-filters="sRGB">
<feFlood flood-opacity="0" result="BackgroundImageFix"/>
<feColorMatrix in="SourceAlpha" type="matrix" values="0 0 0 0 0 0 0 0 0 0 0 0 0 0 0 0 0 0 127 0" result="hardAlpha"/>
<feOffset dy="4"/>
<feGaussianBlur stdDeviation="2"/>
<feComposite in2="hardAlpha" operator="out"/>
<feColorMatrix type="matrix" values="0 0 0 0 0 0 0 0 0 0 0 0 0 0 0 0 0 0 0.25 0"/>
<feBlend mode="normal" in2="BackgroundImageFix" result="effect1_dropShadow_133_948"/>
<feBlend mode="normal" in="SourceGraphic" in2="effect1_dropShadow_133_948" result="shape"/>
</filter>
</defs>
</svg>
