<svg width="38" height="39" viewBox="0 0 38 39" fill="none" xmlns="http://www.w3.org/2000/svg">
<path d="M11.8516 7.29107C11.8516 5.40514 12.6007 3.59646 13.9343 2.26291C15.2678 0.929357 17.0765 0.180176 18.9625 0.180176C20.8484 0.180176 22.6571 0.929357 23.9906 2.26291C25.3242 3.59646 26.0733 5.40514 26.0733 7.29107V19.1425C26.0733 21.0285 25.3242 22.8372 23.9906 24.1707C22.6571 25.5043 20.8484 26.2534 18.9625 26.2534C17.0765 26.2534 15.2678 25.5043 13.9343 24.1707C12.6007 22.8372 11.8516 21.0285 11.8516 19.1425V7.29107Z" fill="white"/>
<path d="M8.29648 15.5871C8.6108 15.5871 8.91224 15.712 9.1345 15.9342C9.35676 16.1565 9.48163 16.4579 9.48163 16.7722V19.1425C9.48163 21.6571 10.4805 24.0687 12.2586 25.8468C14.0367 27.6248 16.4482 28.6237 18.9628 28.6237C21.4774 28.6237 23.889 27.6248 25.667 25.8468C27.4451 24.0687 28.444 21.6571 28.444 19.1425V16.7722C28.444 16.4579 28.5689 16.1565 28.7911 15.9342C29.0134 15.712 29.3148 15.5871 29.6291 15.5871C29.9435 15.5871 30.2449 15.712 30.4672 15.9342C30.6894 16.1565 30.8143 16.4579 30.8143 16.7722V19.1425C30.8143 22.0806 29.7231 24.9139 27.7522 27.0929C25.7813 29.2718 23.0713 30.641 20.148 30.9348V35.7346H27.2589C27.5732 35.7346 27.8746 35.8595 28.0969 36.0817C28.3191 36.304 28.444 36.6055 28.444 36.9198C28.444 37.2341 28.3191 37.5355 28.0969 37.7578C27.8746 37.9801 27.5732 38.1049 27.2589 38.1049H10.6668C10.3525 38.1049 10.051 37.9801 9.82875 37.7578C9.60649 37.5355 9.48163 37.2341 9.48163 36.9198C9.48163 36.6055 9.60649 36.304 9.82875 36.0817C10.051 35.8595 10.3525 35.7346 10.6668 35.7346H17.7777V30.9348C14.8543 30.641 12.1444 29.2718 10.1735 27.0929C8.20258 24.9139 7.11129 22.0806 7.11133 19.1425V16.7722C7.11133 16.4579 7.23619 16.1565 7.45845 15.9342C7.68071 15.712 7.98216 15.5871 8.29648 15.5871Z" fill="white"/>
</svg>
