<svg width="48" height="49" viewBox="0 0 48 49" fill="none" xmlns="http://www.w3.org/2000/svg">
<path d="M11.9764 11.396C10.3883 11.396 8.86515 12.0269 7.74216 13.1499C6.61917 14.2729 5.98828 15.796 5.98828 17.3842V32.3545C5.98828 33.9426 6.61917 35.4657 7.74216 36.5887C8.86515 37.7117 10.3883 38.3426 11.9764 38.3426H26.9467C28.5348 38.3426 30.0579 37.7117 31.1809 36.5887C32.3039 35.4657 32.9348 33.9426 32.9348 32.3545V30.8574L38.3241 34.8994C38.6577 35.1496 39.0545 35.302 39.4698 35.3394C39.8851 35.3769 40.3027 35.2979 40.6757 35.1115C41.0487 34.9249 41.3624 34.6383 41.5816 34.2835C41.8009 33.9288 41.917 33.52 41.917 33.103V16.6356C41.917 16.2186 41.8009 15.8098 41.5816 15.4551C41.3624 15.1004 41.0487 14.8137 40.6757 14.6272C40.3027 14.4407 39.8851 14.3617 39.4698 14.3992C39.0545 14.4366 38.6577 14.589 38.3241 14.8392L32.9348 18.8812V17.3842C32.9348 15.796 32.3039 14.2729 31.1809 13.1499C30.0579 12.0269 28.5348 11.396 26.9467 11.396H11.9764ZM32.9348 22.6238L38.9229 18.1327V31.6059L32.9348 27.1149V22.6238ZM29.9408 17.3842V32.3545C29.9408 33.1485 29.6253 33.9101 29.0638 34.4716C28.5023 35.0331 27.7408 35.3485 26.9467 35.3485H11.9764C11.1823 35.3485 10.4208 35.0331 9.85928 34.4716C9.29779 33.9101 8.98234 33.1485 8.98234 32.3545V17.3842C8.98234 16.5901 9.29779 15.8285 9.85928 15.267C10.4208 14.7055 11.1823 14.3901 11.9764 14.3901H26.9467C27.7408 14.3901 28.5023 14.7055 29.0638 15.267C29.6253 15.8285 29.9408 16.5901 29.9408 17.3842Z" fill="#9747FF"/>
</svg>
