<svg width="31" height="32" viewBox="0 0 31 32" fill="none" xmlns="http://www.w3.org/2000/svg">
<path d="M15.6153 2.95294C13.1606 2.95294 10.761 3.70342 8.72 5.10947C6.679 6.51552 5.08822 8.51399 4.14885 10.8522C3.20948 13.1903 2.9637 15.7632 3.44258 18.2454C3.92147 20.7276 5.10352 23.0076 6.83926 24.7972C8.57499 26.5868 10.7865 27.8055 13.194 28.2992C15.6015 28.793 18.097 28.5395 20.3648 27.571C22.6327 26.6025 24.571 24.9624 25.9348 22.8581C27.2986 20.7538 28.0265 18.2798 28.0265 15.749C28.0202 12.3573 26.7105 9.10633 24.3843 6.70801C22.0582 4.30969 18.905 2.95945 15.6153 2.95294V2.95294ZM17.0473 21.6549C17.0473 21.9159 16.9468 22.1663 16.7677 22.3509C16.5887 22.5355 16.3458 22.6392 16.0926 22.6392C15.8394 22.6392 15.5966 22.5355 15.4176 22.3509C15.2385 22.1663 15.1379 21.9159 15.1379 21.6549V12.1686L13.7536 13.1283C13.5415 13.2719 13.2829 13.3227 13.0344 13.2696C12.786 13.2166 12.5682 13.0639 12.429 12.8453C12.2897 12.6267 12.2404 12.3599 12.2918 12.1038C12.3433 11.8477 12.4914 11.6231 12.7034 11.4796L15.5675 9.51093C15.7125 9.41595 15.879 9.36147 16.0505 9.35284C16.2221 9.34422 16.3929 9.38173 16.5461 9.46171C16.6988 9.54665 16.8261 9.67285 16.9144 9.82676C17.0027 9.98067 17.0486 10.1565 17.0473 10.3353V21.6549Z" fill="#F24E1E"/>
</svg>
