<svg width="42" height="43" viewBox="0 0 42 43" fill="none" xmlns="http://www.w3.org/2000/svg">
<path d="M15.2679 16.0723C13.3938 17.6652 12.7075 20.5697 14.3248 22.8995C15.8445 25.0848 17.7419 26.9816 19.9276 28.5007C22.2575 30.118 25.162 29.4316 26.7548 27.5575L26.7723 27.5663C28.8065 28.5092 30.9658 29.1545 33.1838 29.4822V34.0931H33.1768C19.25 34.1123 8.71663 23.4584 8.73235 9.64857V9.64158H13.3432V9.64333C13.6715 11.8614 14.3178 14.0201 15.2591 16.0531L15.2679 16.0706V16.0723ZM33.1838 37.5861H34.9304C35.3936 37.5861 35.8378 37.4021 36.1654 37.0746C36.4929 36.7471 36.6769 36.3028 36.6769 35.8396V27.9767C36.6773 27.5577 36.527 27.1526 36.2535 26.8352C35.98 26.5177 35.6015 26.3092 35.1871 26.2476L33.6956 26.0276C31.8088 25.7475 29.9719 25.1982 28.2411 24.3963L26.926 23.7868C26.5567 23.6157 26.1392 23.5789 25.7457 23.6829C25.3522 23.7869 25.0074 24.025 24.7708 24.3561L24.1752 25.1892C23.653 25.921 22.6557 26.1428 21.9204 25.6311C20.0769 24.3496 18.4765 22.7498 17.1943 20.9067C16.6826 20.1697 16.9061 19.1724 17.6362 18.652L18.4693 18.0581C18.8008 17.8214 19.0392 17.4763 19.1432 17.0824C19.2472 16.6885 19.2102 16.2707 19.0386 15.9012L18.4274 14.5843C17.6263 12.8534 17.0775 11.0165 16.7978 9.12985L16.576 7.63831C16.5144 7.22388 16.3059 6.8454 15.9885 6.57191C15.6711 6.29842 15.2659 6.14815 14.847 6.14851H6.98581C6.5226 6.14851 6.07836 6.33252 5.75082 6.66006C5.42329 6.9876 5.23928 7.43184 5.23928 7.89505V9.64333C5.22181 25.3744 17.3078 37.6088 33.1821 37.5861H33.1838Z" fill="#9747FF"/>
</svg>
