<svg width="43" height="43" viewBox="0 0 43 43" fill="none" xmlns="http://www.w3.org/2000/svg">
<path d="M17.9163 32.25C21.0965 32.2493 24.185 31.1847 26.6901 29.2257L34.5663 37.1018L37.0997 34.5684L29.2236 26.6922C31.1836 24.1869 32.2489 21.0977 32.2497 17.9167C32.2497 10.0136 25.8194 3.58333 17.9163 3.58333C10.0133 3.58333 3.58301 10.0136 3.58301 17.9167C3.58301 25.8197 10.0133 32.25 17.9163 32.25ZM17.9163 7.16666C23.845 7.16666 28.6663 11.988 28.6663 17.9167C28.6663 23.8453 23.845 28.6667 17.9163 28.6667C11.9877 28.6667 7.16634 23.8453 7.16634 17.9167C7.16634 11.988 11.9877 7.16666 17.9163 7.16666Z" fill="#7C7C7C"/>
</svg>
