<svg width="40" height="41" viewBox="0 0 40 41" fill="none" xmlns="http://www.w3.org/2000/svg">
<path d="M32.4353 17.1248C33.4278 17.1248 34.3798 17.5191 35.0816 18.2209C35.7835 18.9228 36.1778 19.8747 36.1778 20.8673C36.1778 21.8599 35.7835 22.8119 35.0816 23.5137C34.3798 24.2156 33.4278 24.6099 32.4353 24.6099C31.4427 24.6099 30.4907 24.2156 29.7889 23.5137C29.087 22.8119 28.6927 21.8599 28.6927 20.8673C28.6927 19.8747 29.087 18.9228 29.7889 18.2209C30.4907 17.5191 31.4427 17.1248 32.4353 17.1248ZM19.96 17.1248C20.9526 17.1248 21.9045 17.5191 22.6064 18.2209C23.3083 18.9228 23.7026 19.8747 23.7026 20.8673C23.7026 21.8599 23.3083 22.8119 22.6064 23.5137C21.9045 24.2156 20.9526 24.6099 19.96 24.6099C18.9674 24.6099 18.0155 24.2156 17.3136 23.5137C16.6117 22.8119 16.2174 21.8599 16.2174 20.8673C16.2174 19.8747 16.6117 18.9228 17.3136 18.2209C18.0155 17.5191 18.9674 17.1248 19.96 17.1248ZM7.48476 17.1248C8.47735 17.1248 9.42929 17.5191 10.1312 18.2209C10.833 18.9228 11.2273 19.8747 11.2273 20.8673C11.2273 21.8599 10.833 22.8119 10.1312 23.5137C9.42929 24.2156 8.47735 24.6099 7.48476 24.6099C6.49217 24.6099 5.54023 24.2156 4.83836 23.5137C4.13649 22.8119 3.74219 21.8599 3.74219 20.8673C3.74219 19.8747 4.13649 18.9228 4.83836 18.2209C5.54023 17.5191 6.49217 17.1248 7.48476 17.1248Z" fill="#9747FF"/>
</svg>
